<?xml version="1.0" encoding="UTF-8" standalone="no"?>
<!-- Created with Inkscape (http://www.inkscape.org/) -->

<svg
   xmlns:dc="http://purl.org/dc/elements/1.1/"
   xmlns:cc="http://creativecommons.org/ns#"
   xmlns:rdf="http://www.w3.org/1999/02/22-rdf-syntax-ns#"
   xmlns:svg="http://www.w3.org/2000/svg"
   xmlns="http://www.w3.org/2000/svg"
   xmlns:sodipodi="http://sodipodi.sourceforge.net/DTD/sodipodi-0.dtd"
   xmlns:inkscape="http://www.inkscape.org/namespaces/inkscape"
   width="96"
   height="96"
   viewBox="0 0 25.399999 25.400001"
   version="1.1"
   id="svg8"
   inkscape:version="0.92.3 (2405546, 2018-03-11)"
   sodipodi:docname="hey.svg"
   inkscape:export-filename="/home/paulojunior/Documentos/enter-lua-html5/ContadorTempo/www/img/logo.png"
   inkscape:export-xdpi="96"
   inkscape:export-ydpi="96">
  <defs
     id="defs2" />
  <sodipodi:namedview
     id="base"
     pagecolor="#ffffff"
     bordercolor="#666666"
     borderopacity="1.0"
     inkscape:pageopacity="0.0"
     inkscape:pageshadow="2"
     inkscape:zoom="3.2115385"
     inkscape:cx="-52.737382"
     inkscape:cy="34.468777"
     inkscape:document-units="mm"
     inkscape:current-layer="layer1"
     showgrid="false"
     units="px"
     showguides="false"
     inkscape:window-width="1920"
     inkscape:window-height="1026"
     inkscape:window-x="0"
     inkscape:window-y="0"
     inkscape:window-maximized="1" />
  <metadata
     id="metadata5">
    <rdf:RDF>
      <cc:Work
         rdf:about="">
        <dc:format>image/svg+xml</dc:format>
        <dc:type
           rdf:resource="http://purl.org/dc/dcmitype/StillImage" />
        <dc:title />
      </cc:Work>
    </rdf:RDF>
  </metadata>
  <g
     inkscape:label="Camada 1"
     inkscape:groupmode="layer"
     id="layer1"
     transform="translate(0,-271.59998)">
    <g
       id="g3722"
       transform="translate(-0.08238523,0.41192615)">
      <ellipse
         ry="10.54531"
         rx="10.09219"
         cy="283.81833"
         cx="12.316591"
         id="path3713"
         style="fill:#800000;stroke-width:0.26458332" />
      <ellipse
         style="fill:#ff0000;stroke-width:0.24664122"
         id="ellipse3715"
         cx="12.316591"
         cy="283.81833"
         rx="9.4331083"
         ry="9.8038425" />
      <ellipse
         ry="9.3095312"
         rx="8.97999"
         cy="283.81833"
         cx="12.275399"
         id="ellipse3717"
         style="fill:#ffffff;stroke-width:0.23449948" />
    </g>
    <rect
       style="fill:#000000;stroke-width:0.26458332"
       id="rect3724"
       width="0.74146706"
       height="8.4856787"
       x="11.863473"
       y="275.57983" />
    <circle
       style="fill:#000000;stroke-width:0.26458332"
       id="path3726"
       cx="12.234206"
       cy="284.64221"
       r="1.4829341" />
    <rect
       style="fill:#000000;stroke-width:0.24153042"
       id="rect3728"
       width="6.8379736"
       height="0.82385224"
       x="12.60494"
       y="284.06552" />
    <path
       style="fill:#ccff00;stroke-width:0.26458332"
       id="path3730"
       d="m 4.0623177,290.94426 c -0.029551,-0.27307 -0.048872,-0.54672 -0.061313,-0.82105 -0.00672,-0.22687 -0.012634,-0.45379 -0.014811,-0.68075 0.018225,-0.53448 0.6231507,-0.82546 1.1698301,-0.88519 0.1343012,0.0414 0.2457929,0.12662 0.3735538,0.18288 0.1922346,0.088 0.3775782,0.19333 0.5537076,0.3103 0.184092,0.12761 0.2507459,0.32094 0.2902574,0.53146 0.048091,0.21318 0.070473,0.43056 0.1071126,0.64575 0.042794,0.24224 0.094086,0.48256 0.127603,0.72641 0.026816,0.20327 0.029471,0.40853 0.032302,0.61322 0.00148,0.20822 -7.408e-4,0.41645 -6.614e-4,0.62468 0.00138,0.22359 -0.00167,0.44717 -0.00177,0.67076 5.292e-4,0.20797 0.0018,0.41595 0.00246,0.62392 -3.44e-4,0.18799 -5.027e-4,0.37598 -1.305e-4,0.56397 3.969e-4,0.1717 5.557e-4,0.3434 6.35e-4,0.5151 4.08e-5,0.11367 2.326e-4,0.0552 -6.614e-4,0.17549 0,0 -1.0879519,0.55434 -1.0879519,0.55434 v 0 c -8.995e-4,-0.11963 -6.879e-4,-0.0614 -6.614e-4,-0.17483 9.36e-5,-0.17192 2.635e-4,-0.34384 6.35e-4,-0.51575 3.704e-4,-0.18795 2.217e-4,-0.37589 -1.41e-4,-0.56383 6.614e-4,-0.20884 0.00193,-0.41767 0.00251,-0.6265 -1.77e-5,-0.2232 -0.00297,-0.4464 -8.731e-4,-0.66961 7.143e-4,-0.20758 -8e-7,-0.41517 -2.524e-4,-0.62276 -8.732e-4,-0.20075 -0.00273,-0.40184 -0.023469,-0.60172 -0.028236,-0.24338 -0.079173,-0.48187 -0.1236302,-0.72245 -0.037255,-0.21473 -0.063314,-0.43114 -0.1115119,-0.64381 -0.026903,-0.18166 -0.07313,-0.34136 -0.2373016,-0.44542 -0.1753203,-0.11078 -0.3567284,-0.21348 -0.5481217,-0.294 -0.085706,-0.0425 -0.2270468,-0.15758 -0.3226839,-0.0999 -0.3398719,0.25742 -0.044995,0.0325 0.9835197,-0.58527 0.010372,-0.006 -0.021691,0.0109 -0.03167,0.0177 -0.049206,0.0337 -0.051684,0.0845 -0.06383,0.13986 -0.00108,0.2269 -0.00338,0.45386 0.00482,0.68068 0.00955,0.26993 0.024654,0.54016 0.06521,0.80748 0,0 -1.0828009,0.56879 -1.0828009,0.56879 z"
       inkscape:connector-curvature="0" />
    <path
       style="fill:#ccff00;stroke-width:0.26458332"
       id="path3732"
       d="m 6.4273749,291.71344 c 0.2366106,0.0356 0.4755968,0.0515 0.7144877,0.0612 0.2184091,0.007 0.4369565,0.007 0.6554515,0.007 0.210493,-7.1e-4 0.4209841,-10e-4 0.6314779,-5.5e-4 0.2248664,10e-4 0.4497358,-1.2e-4 0.674602,-7.7e-4 0.1861519,-0.0225 0.3622601,-0.0867 0.5290079,-0.17059 0.4293061,-0.26139 -0.1319985,0.0815 -0.8538861,0.48556 -0.033104,0.0185 0.062683,-0.0428 0.093677,-0.0646 0.050054,-0.0353 0.134053,-0.0992 0.1862545,-0.12979 0.3789386,-0.22172 0.7603572,-0.43918 1.1405367,-0.65877 0,0 -0.9474507,0.76473 -0.9474507,0.76473 v 0 c 0.3137022,-0.18261 0.6268254,-0.36622 0.9411067,-0.54783 0.03327,-0.0192 -0.06582,0.0397 -0.09804,0.0607 -0.06293,0.0409 -0.1170857,0.0947 -0.1814442,0.13334 -0.3762127,0.22576 -0.7561604,0.44526 -1.1360105,0.66484 -0.032094,0.0186 -0.066409,0.033 -0.099614,0.0494 -0.1799641,0.0724 -0.3647634,0.13219 -0.5612091,0.1302 -0.2242857,-6.1e-4 -0.4485753,-0.002 -0.6728602,-4.2e-4 -0.2104816,7.9e-4 -0.4209643,10e-4 -0.6314464,1.7e-4 -0.2194859,-6.9e-4 -0.4390988,-4.2e-4 -0.6583437,-0.0123 -0.2422654,-0.0138 -0.483643,-0.0372 -0.724667,-0.0653 0,0 0.9983721,-0.70656 0.9983721,-0.70656 z"
       inkscape:connector-curvature="0" />
    <path
       style="fill:#ccff00;stroke-width:0.26458332"
       id="path3734"
       d="m 11.056703,287.9282 c -0.165171,0.24332 -0.339281,0.48039 -0.471914,0.74347 -0.09977,0.24963 -0.204668,0.49707 -0.303171,0.74722 -0.07523,0.20573 -0.155701,0.41044 -0.212996,0.6221 -0.05085,0.16275 -0.09306,0.32647 -0.114976,0.49564 -0.010345,0.18616 -0.02435,0.37053 -0.052088,0.555 -0.028418,0.17191 -0.038112,0.3458 -0.044941,0.51964 -0.00496,0.20212 -0.00483,0.40431 -0.00422,0.60647 -0.015997,0.2322 0.054934,0.45227 0.123194,0.67064 0.072734,0.22761 0.209094,0.42379 0.337552,0.62218 0.114685,0.17599 0.226334,0.35392 0.339094,0.53119 0.126798,0.17097 0.253613,0.33993 0.370875,0.51779 0.123837,0.1921 0.28584,0.3504 0.491136,0.45102 0.154253,0.0988 0.335568,0.11051 0.506825,0.157 0.177293,0.0706 0.322876,0.19306 0.500982,0.26286 0.07724,0.0275 0.158117,0.0376 0.238908,0.0476 0,0 -1.00055,0.70237 -1.00055,0.70237 v 0 c -0.08697,-0.0176 -0.173691,-0.0361 -0.255081,-0.073 -0.165634,-0.0783 -0.311534,-0.19635 -0.489839,-0.24534 -0.182298,-0.0392 -0.361357,-0.0858 -0.522268,-0.18473 -0.210699,-0.12527 -0.386371,-0.29664 -0.5206204,-0.50246 -0.1187955,-0.17778 -0.248831,-0.34574 -0.3742766,-0.51865 -0.1123895,-0.17725 -0.2229808,-0.35554 -0.3361275,-0.53226 -0.1325824,-0.20851 -0.2762459,-0.41321 -0.3532973,-0.65078 -0.070925,-0.22821 -0.1534417,-0.45888 -0.1433015,-0.70155 3.439e-4,-0.20298 -7.408e-4,-0.40596 0.00172,-0.60893 0.00251,-0.17832 0.011123,-0.35677 0.038172,-0.53328 0.02832,-0.18311 0.054947,-0.36392 0.052694,-0.54989 0.01669,-0.17434 0.047131,-0.34642 0.1093473,-0.51099 0.050636,-0.21994 0.1376423,-0.42804 0.2127805,-0.64036 0.1023599,-0.25086 0.2029677,-0.50246 0.3010855,-0.75508 0.1237732,-0.27086 0.295397,-0.50765 0.4539756,-0.75853 0,0 1.1213344,-0.48632 1.1213344,-0.48632 z"
       inkscape:connector-curvature="0" />
    <path
       style="fill:#d4ff2a;stroke-width:0.26458332"
       id="path3736"
       d="m 13.755268,292.35646 c 0.25348,0.005 0.50702,0.002 0.760526,0.002 0.21419,-7.4e-4 0.428377,-8.7e-4 0.642567,-9e-4 0.201417,-5.3e-4 0.402833,-3.9e-4 0.604249,2.9e-4 0.233744,2.7e-4 0.467486,7.4e-4 0.70123,2.2e-4 0.222471,0.004 0.379139,0.024 0.575142,-0.0927 -0.325501,0.18482 -0.648887,0.37342 -0.976502,0.55446 -0.02765,0.0153 0.0604,-0.0258 0.109356,-0.11152 0.05532,-0.0969 0.0639,-0.21201 0.07809,-0.31979 0.0087,-0.21668 0.0447,-0.44171 -0.01011,-0.65451 -0.03709,-0.12133 -0.109577,-0.14104 -0.223689,-0.14428 -0.202606,0.008 -0.401434,-0.0212 -0.601961,-0.045 -0.208016,-0.0246 -0.417545,-0.0307 -0.626785,-0.0343 -0.189926,-0.002 -0.379864,-0.002 -0.569798,-0.002 -0.175438,5e-4 -0.350875,8.2e-4 -0.526314,9.8e-4 -0.08682,0.0108 -0.166651,0.0478 -0.243192,0.0886 -0.03131,0.0167 -0.122718,0.0713 -0.09191,0.0537 0.962321,-0.54916 1.256558,-0.73727 0.841163,-0.47477 -0.237265,0.14994 -0.44744,0.3368 -0.653374,0.52622 -0.165184,0.15713 -0.339279,0.30668 -0.462145,0.50054 -0.09804,0.18137 -0.09659,0.38944 -0.102768,0.59009 -0.01637,0.23312 5.56e-4,0.44878 0.108777,0.65721 0.09771,0.17573 0.267647,0.27892 0.425627,0.39311 0.178423,0.13115 0.340216,0.28269 0.500123,0.43533 0.181617,0.18333 0.362812,0.36577 0.560728,0.53148 0.145626,0.13082 0.316866,0.23049 0.500834,0.29627 0.160277,0.0515 0.319253,0.0969 0.486742,0.11794 0.162446,0.0159 0.325886,0.0155 0.488937,0.0159 0.178642,0.01 0.354952,0.0481 0.534075,0.0645 0.111218,0.009 0.22276,0.0115 0.334238,0.0146 0,0 -0.986924,0.71209 -0.986924,0.71209 v 0 c -0.114065,-0.004 -0.228272,-0.008 -0.341903,-0.0195 -0.17619,-0.0201 -0.351186,-0.0575 -0.529135,-0.0537 -0.166719,-0.002 -0.334108,-0.005 -0.499196,-0.0305 -0.171571,-0.0312 -0.337728,-0.0821 -0.501677,-0.14138 -0.189233,-0.0833 -0.366123,-0.19089 -0.518388,-0.33197 -0.196937,-0.16995 -0.376203,-0.35783 -0.564809,-0.5368 -0.157127,-0.14831 -0.316746,-0.29479 -0.493245,-0.42014 -0.173901,-0.12461 -0.347902,-0.25047 -0.453842,-0.44246 -0.118683,-0.22655 -0.155399,-0.45694 -0.134339,-0.71251 0.0016,-0.21513 -0.0075,-0.43699 0.07208,-0.64092 0.104969,-0.21737 0.27699,-0.37676 0.452922,-0.53856 0.204701,-0.19272 0.41212,-0.38493 0.643673,-0.54537 0.457274,-0.30186 0.198752,-0.13405 1.242348,-0.7291 0.113671,-0.0648 0.243248,-0.098 0.373483,-0.0984 0.174937,-10e-6 0.349873,-3e-5 0.524809,1.1e-4 0.190498,2e-4 0.381041,-8.7e-4 0.571487,0.004 0.210952,0.007 0.422009,0.0177 0.631479,0.0449 0.202932,0.024 0.405554,0.0308 0.609171,0.0432 0.148467,0.0345 0.247786,0.11766 0.29571,0.26689 0.06562,0.22747 0.0344,0.46393 0.02539,0.69769 -0.06269,0.79356 -0.31745,0.64492 -1.255699,1.17688 -0.196238,0.0667 -0.398814,0.0488 -0.603665,0.0486 -0.233942,-5.3e-4 -0.467883,-4e-5 -0.701825,2.2e-4 -0.201685,6.9e-4 -0.40337,8.2e-4 -0.605057,2.9e-4 -0.213373,-10e-6 -0.426743,-1.4e-4 -0.640116,-9e-4 -0.25539,9e-5 -0.510811,-0.003 -0.766177,0.002 0,0 0.989588,-0.71897 0.989588,-0.71897 z"
       inkscape:connector-curvature="0" />
    <path
       style="fill:#d4ff2a;stroke-width:0.26458332"
       id="path3738"
       d="m 18.709459,289.14194 c 0.226034,0.18557 0.412474,0.40813 0.561461,0.65869 0.153525,0.26512 0.28536,0.54173 0.402057,0.82477 0.100679,0.21901 0.203957,0.43692 0.305991,0.6554 0.100039,0.17881 0.185123,0.36533 0.264943,0.55387 0.08652,0.20466 0.225223,0.3776 0.369743,0.54364 0.141749,0.16046 0.282933,0.31854 0.477434,0.41351 0.180105,0.0707 0.297389,0.0671 0.463962,-0.0281 -1.766727,1.06623 -0.911949,0.5684 -0.545755,0.19617 0.16053,-0.17167 0.301167,-0.35998 0.437187,-0.55122 0.116487,-0.16526 0.174782,-0.3559 0.228544,-0.5479 0.05696,-0.17434 0.08182,-0.35618 0.118585,-0.53524 0.0061,-0.0319 0.01158,-0.0639 0.01827,-0.0956 0.0346,-0.16443 0.0095,-0.0334 0.04717,-0.19173 0.0069,-0.0289 0.0021,-0.11519 0.01394,-0.088 0.0097,0.0224 0.01305,0.0471 0.01958,0.0706 2.166672,-1.08904 1.177158,-0.77425 0.931562,-0.45845 -0.05689,0.0731 -0.103554,0.1544 -0.153789,0.23209 -0.122857,0.18763 -0.195888,0.40234 -0.284994,0.6071 -0.08784,0.23542 -0.207823,0.45659 -0.302447,0.68894 -0.07159,0.2151 -0.113214,0.43876 -0.169252,0.65821 -0.04659,0.17756 -0.102948,0.35217 -0.157167,0.52749 -0.05233,0.1916 -0.110157,0.38087 -0.177729,0.56766 -0.07347,0.2111 -0.178077,0.40934 -0.289289,0.60256 -0.120109,0.19485 -0.244984,0.38591 -0.387085,0.56545 -0.146318,0.17769 -0.308345,0.34151 -0.469932,0.50514 -0.506908,0.54488 -0.937016,0.68923 -1.673231,1.10146 -0.235968,0.072 -0.483458,0.0794 -0.728128,0.0846 -0.18809,-5.3e-4 -0.375643,0.0223 -0.552788,-0.0498 -0.148772,-0.0525 -0.240616,-0.18082 -0.31431,-0.31365 -0.05676,-0.12208 -0.07059,-0.25538 -0.07911,-0.38791 -0.0046,-0.13285 -0.0017,-0.26584 -7.93e-4,-0.39874 0.0017,-0.1487 4.23e-4,-0.29739 5.82e-4,-0.44609 0,0 1.091396,-0.55597 1.091396,-0.55597 v 0 c -9.4e-5,0.14898 -0.0019,0.29795 -0.0013,0.44694 -1.58e-4,0.13069 -6.88e-4,0.26139 7.41e-4,0.39208 0.0027,0.11463 0.0075,0.23161 0.0513,0.33922 0.06059,0.1122 0.13487,0.20295 0.263183,0.23637 0.171723,0.038 0.350223,0.0153 0.524768,0.0185 0.236668,-0.009 0.476544,-0.0244 0.696457,-0.12112 -2.379696,1.39565 -0.892436,0.55761 -0.696469,0.40071 0.105982,-0.0849 0.197265,-0.18484 0.293319,-0.28024 0.161099,-0.16163 0.322888,-0.32291 0.473789,-0.49424 0.146753,-0.17285 0.274202,-0.35775 0.395305,-0.54925 0.114022,-0.18455 0.216197,-0.37716 0.297668,-0.57829 0.06,-0.18804 0.137651,-0.37034 0.178048,-0.56465 0.05559,-0.17421 0.109084,-0.34876 0.159031,-0.52459 0.06896,-0.2198 0.105966,-0.44871 0.168383,-0.67041 0.08763,-0.23711 0.214605,-0.45543 0.298052,-0.69434 0.09711,-0.20574 0.167786,-0.42356 0.274469,-0.62385 0.42949,-0.62921 0.109108,-0.39424 1.34193,-0.97956 0.02208,0.0247 0.0495,0.0455 0.06625,0.0741 0.05864,0.10007 -0.07403,0.30425 -0.06938,0.41544 -0.03685,0.18194 -0.0605,0.36652 -0.113656,0.54475 -0.0624,0.19789 -0.101475,0.40401 -0.214522,0.58274 -0.129617,0.19967 -0.277567,0.38774 -0.432457,0.56831 -0.412939,0.48488 -0.951522,0.73618 -1.534763,1.03099 -0.183776,0.0537 -0.357333,0.028 -0.527368,-0.0614 -0.195068,-0.11736 -0.348558,-0.28158 -0.497559,-0.45219 -0.151702,-0.17623 -0.296103,-0.36026 -0.390364,-0.57482 -0.08181,-0.1864 -0.161696,-0.37402 -0.261742,-0.55162 -0.102562,-0.22062 -0.20558,-0.44118 -0.305055,-0.66314 -0.110571,-0.27908 -0.24123,-0.54934 -0.391088,-0.80958 -0.141296,-0.2359 -0.320866,-0.44807 -0.544985,-0.60997 0,0 1.031451,-0.65575 1.031451,-0.65575 z"
       inkscape:connector-curvature="0" />
  </g>
</svg>
