<?xml version="1.0" encoding="UTF-8" standalone="no"?>
<!-- Created with Inkscape (http://www.inkscape.org/) -->

<svg
   xmlns:dc="http://purl.org/dc/elements/1.1/"
   xmlns:cc="http://creativecommons.org/ns#"
   xmlns:rdf="http://www.w3.org/1999/02/22-rdf-syntax-ns#"
   xmlns:svg="http://www.w3.org/2000/svg"
   xmlns="http://www.w3.org/2000/svg"
   xmlns:sodipodi="http://sodipodi.sourceforge.net/DTD/sodipodi-0.dtd"
   xmlns:inkscape="http://www.inkscape.org/namespaces/inkscape"
   width="96"
   height="96"
   viewBox="0 0 25.399999 25.400001"
   version="1.1"
   id="svg8"
   inkscape:version="0.92.3 (2405546, 2018-03-11)"
   sodipodi:docname="r3.svg"
   inkscape:export-filename="/home/paulojunior/Documentos/enter-lua-html5/Regra3/www/img/logo.png"
   inkscape:export-xdpi="96"
   inkscape:export-ydpi="96">
  <defs
     id="defs2" />
  <sodipodi:namedview
     id="base"
     pagecolor="#ffffff"
     bordercolor="#666666"
     borderopacity="1.0"
     inkscape:pageopacity="0.0"
     inkscape:pageshadow="2"
     inkscape:zoom="3.653125"
     inkscape:cx="10.017109"
     inkscape:cy="39.520958"
     inkscape:document-units="mm"
     inkscape:current-layer="layer1"
     showgrid="false"
     units="px"
     inkscape:window-width="1920"
     inkscape:window-height="1026"
     inkscape:window-x="0"
     inkscape:window-y="0"
     inkscape:window-maximized="1" />
  <metadata
     id="metadata5">
    <rdf:RDF>
      <cc:Work
         rdf:about="">
        <dc:format>image/svg+xml</dc:format>
        <dc:type
           rdf:resource="http://purl.org/dc/dcmitype/StillImage" />
        <dc:title></dc:title>
      </cc:Work>
    </rdf:RDF>
  </metadata>
  <g
     inkscape:label="Camada 1"
     inkscape:groupmode="layer"
     id="layer1"
     transform="translate(0,-271.59998)">
    <rect
       style="fill:#d4ff2a;stroke-width:0.26458332"
       id="rect10"
       width="25.639008"
       height="25.711433"
       x="-2.9785343e-09"
       y="271.57825" />
    <ellipse
       style="fill:#ff5555;stroke-width:0.26458332"
       id="path12"
       cx="12.783291"
       cy="284.5426"
       rx="12.710864"
       ry="12.384944" />
    <g
       id="g20">
      <path
         inkscape:connector-curvature="0"
         d="m 9.8222614,274.87119 c -0.00627,0.23838 -0.00588,0.47692 -0.00522,0.71537 7.409e-4,0.19675 0.00368,0.3935 0.00298,0.59026 5.292e-4,0.17313 2.051e-4,0.34626 1.64e-5,0.5194 -0.00167,0.21123 -0.00204,0.42247 -0.00116,0.6337 0.00148,0.18362 0.00153,0.36723 5.557e-4,0.55085 -0.00172,0.19631 -8.84e-5,0.39263 8.202e-4,0.58895 -8.467e-4,0.1725 4.47e-5,0.34501 5.027e-4,0.51751 4.233e-4,0.16362 -5.556e-4,0.32724 -2.911e-4,0.49086 8.202e-4,0.16388 6.615e-4,0.32774 -8.466e-4,0.49161 -4.13e-5,0.18633 1.161e-4,0.37265 1.291e-4,0.55897 0.00754,0.21342 -0.00794,0.42499 -0.031143,0.63689 -0.026175,0.20501 -0.033778,0.41142 -0.039315,0.61778 -0.00692,0.22552 0.00222,0.45122 -0.011327,0.67647 -0.013454,0.21037 -0.046675,0.41772 -0.083814,0.62489 -0.029215,0.17652 -0.073504,0.3495 -0.09858,0.52681 -0.020407,0.16271 -0.023643,0.32685 -0.025278,0.49062 -0.00222,0.19171 -0.00164,0.38343 -6.085e-4,0.57514 1.598e-4,0.0291 3.175e-4,0.0583 4.763e-4,0.0874 0,0 -0.9541767,0.48633 -0.9541767,0.48633 v 0 c 8.65e-5,-0.0292 1.728e-4,-0.0585 2.593e-4,-0.0877 4.762e-4,-0.19186 -7.25e-5,-0.38372 -8.731e-4,-0.57557 0.00114,-0.16763 4.233e-4,-0.33565 0.019423,-0.50248 0.022278,-0.17971 0.062572,-0.35501 0.097981,-0.53208 0.037187,-0.20474 0.077265,-0.40843 0.092211,-0.61649 0.019426,-0.22288 0.0057,-0.44701 0.011721,-0.67055 0.00354,-0.20918 0.00979,-0.41891 0.035156,-0.62675 0.025056,-0.20795 0.046334,-0.41495 0.034454,-0.62486 1.29e-5,-0.18637 1.709e-4,-0.37274 1.291e-4,-0.5591 -0.00151,-0.16358 -0.00167,-0.32716 -8.467e-4,-0.49075 2.63e-4,-0.16352 -7.144e-4,-0.32703 -2.91e-4,-0.49055 4.762e-4,-0.17268 0.00138,-0.34536 5.027e-4,-0.51803 9.26e-4,-0.1966 0.00254,-0.39321 8.202e-4,-0.5898 -9.79e-4,-0.1838 -9.261e-4,-0.3676 5.556e-4,-0.5514 8.731e-4,-0.21085 5.292e-4,-0.42169 -0.00116,-0.63253 -1.889e-4,-0.17314 -5.027e-4,-0.34627 1.67e-5,-0.51941 -7.144e-4,-0.19777 0.00225,-0.39553 0.00298,-0.5933 6.614e-4,-0.23667 0.00111,-0.47344 -0.00522,-0.71005 0,0 0.9584666,-0.48836 0.9584666,-0.48836 z"
         id="path14"
         style="fill:#ffd42a;stroke-width:0.26458332" />
      <path
         inkscape:connector-curvature="0"
         d="m 6.7019084,276.96298 c 0.06337,-0.19755 0.096196,-0.40259 0.1186744,-0.60825 0.018383,-0.21458 0.019042,-0.43016 0.020865,-0.64537 0.00301,-0.2413 0.051496,-0.47634 0.1153385,-0.70785 0.035666,-0.18928 0.127354,-0.35446 0.2197632,-0.52033 0.098808,-0.17046 0.2025452,-0.33852 0.3178207,-0.49839 0.3292054,-0.43601 0.8352533,-0.60322 1.3147296,-0.87201 0.1825117,-0.0333 0.3572849,-0.0968 0.5392613,-0.13284 0.1825136,-0.0338 0.3606247,-0.083 0.5453251,-0.10612 0.1728248,-0.0209 0.3475408,-0.004 0.5196278,-0.0282 0.166463,-0.0288 0.334311,-0.0459 0.502911,-0.0546 0.147313,-0.006 0.294784,-0.006 0.442192,-0.006 0.181492,6.2e-4 0.362983,0.002 0.544476,0.002 0.230549,-0.005 0.458782,-3.3e-4 0.687777,0.0259 0.193908,0.0477 0.393985,0.0677 0.578688,0.14574 0.150734,0.0805 0.308189,0.13159 0.471298,0.17911 0.192172,0.0434 0.374631,0.12418 0.543351,0.22479 0.166826,0.11491 0.34243,0.21627 0.51232,0.32661 0.186487,0.12592 0.361671,0.26862 0.515627,0.43274 0.142062,0.16711 0.295587,0.32444 0.435148,0.49357 0.101099,0.14224 0.172923,0.30405 0.23465,0.46667 0.06662,0.19079 0.110485,0.3868 0.139554,0.58643 0.02237,0.16745 0.02702,0.33641 0.02925,0.5051 -7.94e-4,0.16882 7.1e-5,0.33764 -0.0013,0.50646 -0.0014,0.20841 -0.0016,0.41683 -0.0028,0.62525 -0.0016,0.21821 7.15e-4,0.43642 0.0021,0.65463 -0.0111,0.16213 -0.03059,0.32548 -0.07913,0.48092 -0.05481,0.17007 -0.156509,0.31367 -0.268226,0.45044 -0.131476,0.15082 -0.270743,0.29501 -0.416046,0.43253 -0.135082,0.11963 -0.28732,0.21746 -0.433017,0.32343 -0.431433,0.29685 -0.897877,0.54076 -1.351564,0.79974 -0.197519,0.0989 -0.405339,0.1682 -0.612518,0.24227 -0.193578,0.0763 -0.402079,0.0849 -0.599307,0.14604 -0.172755,0.0591 -0.351545,0.0912 -0.53294,0.10655 -0.148166,0.01 -0.296734,0.009 -0.445127,0.008 -0.144551,-4.7e-4 -0.289103,-8.7e-4 -0.433655,-0.001 -0.144778,-1.8e-4 -0.289555,-1.8e-4 -0.434333,-1.9e-4 -0.05001,0 -0.08576,-0.006 -0.132455,0.0149 -0.01659,0.007 -0.06025,0.0404 -0.04443,0.0315 0.297795,-0.16963 0.59559,-0.33927 0.893384,-0.50891 -0.02648,-10e-4 -0.02096,-0.008 -0.0236,0.0127 0.08229,0.11406 0.204142,0.19918 0.309439,0.29245 0.154603,0.15615 0.334808,0.2809 0.509908,0.41216 0.192374,0.14248 0.365158,0.30818 0.537563,0.47357 0.154641,0.14361 0.287092,0.30844 0.410301,0.47912 0.123023,0.14023 0.210164,0.30074 0.29661,0.46438 0.112428,0.1827 0.233389,0.3588 0.340476,0.54485 0.11094,0.21351 0.243777,0.41369 0.374079,0.61545 0.102295,0.1626 0.201164,0.32579 0.320757,0.47648 0.119269,0.14309 0.230611,0.29217 0.352819,0.43292 0.132203,0.14864 0.272399,0.28988 0.412413,0.43109 0.144952,0.13329 0.266189,0.28824 0.393535,0.43764 0.113534,0.15533 0.189216,0.33283 0.297952,0.49216 0.11697,0.16123 0.256227,0.30427 0.394929,0.44658 0.107535,0.10599 0.239642,0.16774 0.387553,0.18921 0.115558,0.0105 0.231763,0.007 0.347627,0.006 0.154974,0.0348 0.303122,0.0842 0.460436,0.11057 0.189916,0.0261 0.381752,0.031 0.573154,0.0333 0.152194,9.6e-4 0.304392,4e-5 0.456587,-3.9e-4 0.144603,-4e-4 0.289206,-4.8e-4 0.433809,-5.3e-4 0.105438,0.007 0.204681,-0.0281 0.296733,-0.077 0.02762,-0.0147 0.107929,-0.0633 0.08075,-0.0478 -0.277679,0.15808 -0.554837,0.31708 -0.832256,0.47561 0.17284,-0.10986 0.32053,-0.25296 0.467006,-0.39475 0.158614,-0.15279 0.29889,-0.32342 0.439402,-0.49266 0.135101,-0.18142 0.229241,-0.38824 0.326987,-0.59104 0.0829,-0.16525 0.1115,-0.34608 0.126764,-0.52813 0.01108,-0.18147 0.0095,-0.36348 0.0086,-0.54521 0.0024,-0.16039 0.0094,-0.31543 -0.05399,-0.46508 -0.09141,-0.15112 -0.206638,-0.28752 -0.317019,-0.42534 -0.123186,-0.15071 -0.258766,-0.29061 -0.394624,-0.42981 -0.143236,-0.14557 -0.287953,-0.28966 -0.432468,-0.43395 -0.137102,-0.14074 -0.295867,-0.25967 -0.46201,-0.36387 -0.142793,-0.0917 -0.309947,-0.098 -0.47019,-0.13236 -0.161037,-0.0352 -0.325215,-0.0491 -0.489532,-0.0565 -0.147043,-0.005 -0.294195,-0.004 -0.441298,-0.004 -0.02731,-0.027 -0.217626,0.0966 -0.192969,0.0828 0.857535,-0.48002 1.108502,-0.72254 0.821106,-0.45223 0,0 -0.987115,0.42522 -0.987115,0.42522 v 0 c 0.225195,-0.40934 0.766528,-0.64384 1.227583,-0.68679 0.148125,3.5e-4 0.296369,6.1e-4 0.444276,0.01 0.166899,0.0123 0.332693,0.0339 0.49653,0.0686 0.173209,0.0292 0.342738,0.0675 0.490836,0.16824 0.169031,0.11318 0.333983,0.2339 0.473645,0.38296 0.144851,0.14463 0.289906,0.28906 0.433416,0.43502 0.138247,0.1418 0.276084,0.28441 0.401337,0.43802 0.116164,0.1452 0.237073,0.28898 0.332698,0.44861 0.07389,0.16363 0.08383,0.32642 0.07316,0.50464 3.44e-4,0.18402 0.0028,0.3681 -0.0036,0.55206 -0.01271,0.19244 -0.03446,0.38728 -0.113511,0.56541 -0.09747,0.20907 -0.197912,0.4173 -0.318252,0.61437 -0.135236,0.17471 -0.281135,0.34298 -0.432427,0.50366 -0.14645,0.14494 -0.292923,0.29115 -0.457768,0.41547 -0.400753,0.23297 -0.885554,0.6719 -1.410356,0.66732 -0.14454,10e-5 -0.289081,2.9e-4 -0.433621,5.8e-4 -0.152116,2.2e-4 -0.304258,7.2e-4 -0.456342,-0.003 -0.194433,-0.006 -0.389217,-0.0162 -0.581364,-0.0484 -0.15154,-0.03 -0.299132,-0.0849 -0.454194,-0.0905 -0.120632,2.6e-4 -0.242306,-10e-6 -0.360847,-0.0254 -0.159105,-0.0445 -0.300342,-0.12629 -0.415949,-0.24578 -0.142677,-0.14703 -0.28539,-0.29527 -0.405053,-0.46217 -0.106179,-0.15633 -0.183187,-0.32864 -0.292535,-0.48194 -0.125534,-0.1474 -0.245321,-0.29998 -0.388336,-0.43138 -0.141668,-0.14295 -0.283471,-0.28597 -0.417064,-0.43659 -0.123122,-0.1421 -0.235627,-0.29231 -0.355487,-0.43702 -0.121235,-0.15405 -0.222053,-0.32006 -0.323536,-0.48746 -0.12848,-0.2047 -0.262905,-0.40584 -0.376302,-0.61969 -0.107666,-0.18718 -0.23215,-0.36226 -0.344953,-0.5462 -0.08551,-0.15861 -0.170449,-0.31503 -0.28997,-0.45173 -0.118747,-0.16561 -0.246036,-0.32597 -0.39563,-0.46517 -0.169573,-0.16241 -0.342684,-0.32161 -0.531028,-0.46232 -0.177874,-0.1327 -0.359477,-0.2605 -0.518319,-0.41653 -0.1217,-0.1051 -0.260898,-0.19985 -0.346604,-0.33835 -0.199783,-0.48694 0.686555,-0.70704 1.121466,-0.70056 0.144816,3e-5 0.289631,7e-5 0.434447,3.2e-4 0.144491,2.9e-4 0.288982,8.7e-4 0.433473,8.2e-4 0.145973,-5.8e-4 0.292296,-0.001 0.437602,-0.0168 0.176518,-0.0227 0.348601,-0.0649 0.518694,-0.11722 0.198629,-0.0469 0.402368,-0.074 0.593037,-0.15095 0.208613,-0.0721 0.411986,-0.15683 0.608668,-0.25743 -1.608017,0.9346 -0.834922,0.4981 -0.481764,0.26225 0.150323,-0.0976 0.292658,-0.20923 0.439123,-0.31214 0.153438,-0.12533 0.284751,-0.27539 0.421689,-0.41813 0.111313,-0.1257 0.223134,-0.2549 0.280489,-0.41551 0.06393,-0.14118 0.07301,-0.29548 0.09803,-0.44721 0.0013,-0.21892 0.0036,-0.43786 0.0021,-0.65679 -0.0011,-0.20768 -0.0012,-0.41536 -0.002,-0.62305 -6.87e-4,-0.16817 0.0016,-0.33635 -1.25e-4,-0.50452 -5.55e-4,-0.16516 -0.0018,-0.33064 -0.01936,-0.49505 -0.02385,-0.19267 -0.06534,-0.38037 -0.129805,-0.56385 -0.05758,-0.15167 -0.123934,-0.30324 -0.215218,-0.43775 -0.137024,-0.16756 -0.287534,-0.32395 -0.429223,-0.48758 -0.151942,-0.15476 -0.320028,-0.29311 -0.50196,-0.41151 -0.170342,-0.10753 -0.344732,-0.20851 -0.512435,-0.3202 -0.166508,-0.0911 -0.342689,-0.16217 -0.528415,-0.20355 -0.166477,-0.0462 -0.320666,-0.11549 -0.478043,-0.1859 -0.18074,-0.0612 -0.371409,-0.091 -0.558575,-0.12568 -0.227344,-0.0212 -0.454985,-0.0173 -0.683147,-0.0157 -0.182902,1e-5 -0.365807,7.1e-4 -0.548706,0.001 -0.145947,6e-4 -0.292007,10e-4 -0.437712,0.0107 -0.166811,0.0124 -0.3322465,0.0354 -0.498181,0.056 -0.1729055,0.0103 -0.3469508,0.007 -0.5186071,0.0334 -0.1805718,0.0298 -0.3574175,0.0768 -0.5372725,0.11044 -0.1780974,0.0449 -0.3568673,0.0917 -0.5304044,0.15148 0.2832484,-0.16479 0.5675813,-0.32774 0.8497451,-0.49438 0.023294,-0.0138 -0.049512,0.0221 -0.07293,0.0356 -0.1044059,0.0604 -0.1918171,0.15023 -0.2681071,0.24208 -0.1199599,0.15339 -0.2217099,0.31877 -0.3238436,0.48429 -0.087217,0.16239 -0.196551,0.31486 -0.2315366,0.49967 -0.066243,0.22303 -0.1249188,0.44817 -0.1304682,0.68251 5.556e-4,0.21767 0.00212,0.43566 -0.013653,0.65291 -0.017817,0.21012 -0.053776,0.41775 -0.1037844,0.62267 0,0 -0.9712986,0.46132 -0.9712986,0.46132 z"
         id="path16"
         style="fill:#ffd42a;stroke-width:0.26458332" />
    </g>
    <path
       style="fill:#ff00ff;stroke-width:0.19419391"
       id="path22"
       d="m 12.595203,285.6257 c 0.135888,-0.13508 0.283953,-0.24914 0.432336,-0.36202 0.134215,-0.0932 0.264546,-0.19257 0.385694,-0.3097 0.22926,-0.22737 0.495228,-0.37557 0.756289,-0.55221 0.01554,-0.0105 0.03423,-0.0117 0.05102,-0.0188 0.04701,-0.0197 0.04997,-0.0241 0.0942,-0.052 0.106635,-0.0617 0.212509,-0.12575 0.321932,-0.18034 0.117133,-0.078 0.243443,-0.12569 0.367274,-0.18325 0.117105,-0.0466 0.234519,-0.0918 0.356484,-0.11443 0.147468,-0.043 0.298837,-0.0604 0.449712,-0.0737 0.125981,-0.01 0.249614,-0.0426 0.375598,-0.055 0.131213,-0.011 0.262825,-0.0117 0.394287,-0.0118 0.185508,0.002 0.371023,0.002 0.556536,0.002 0.16043,4e-4 0.320859,-8.2e-4 0.481285,-0.002 0.127093,0.016 0.243964,0.0882 0.36113,0.14692 0.121126,0.0759 0.242231,0.15303 0.356951,0.24297 0.116162,0.0942 0.218712,0.2082 0.31038,0.33601 0.07096,0.10739 0.111451,0.23795 0.144607,0.36854 0.02778,0.12075 0.03345,0.24623 0.03566,0.37093 0.0023,0.1502 5.79e-4,0.30041 -5.62e-4,0.45061 -4.73e-4,0.1576 4.21e-4,0.31521 9.29e-4,0.47281 7.29e-4,0.15143 -0.0581,0.2748 -0.133303,0.38891 -0.25046,0.2868 -0.58513,0.43454 -0.881833,0.64036 -0.09062,0.0674 -0.197156,0.0685 -0.296064,0.10188 -0.103675,0.025 -0.206375,0.055 -0.310263,0.079 -0.115493,0.0374 -0.226555,0.0793 -0.334845,0.14139 -0.117452,0.0712 -0.24302,0.10201 -0.372203,0.11689 -0.440082,0.0203 -0.326592,0.0918 0.369652,-0.50481 0.121025,-0.007 0.239968,0.0184 0.359999,0.0329 0.192655,0.0425 0.387336,0.0648 0.582604,0.078 0.159912,0.009 0.320029,0.009 0.480077,0.009 0.107538,0.0217 0.214855,0.0411 0.323633,0.0501 0.112109,0.002 0.221807,0.009 0.332452,0.0297 0.142207,0.0308 0.278398,0.088 0.421008,0.11944 0.151164,0.0345 0.283515,0.12876 0.408934,0.23328 0.116693,0.10267 0.220288,0.22506 0.322889,0.34765 0.09293,0.11357 0.177006,0.23877 0.256778,0.36643 0.08335,0.14929 0.174514,0.29099 0.238066,0.45496 0.04838,0.13729 0.05144,0.2881 0.06905,0.43401 0.02757,0.18348 0.06334,0.36429 0.102082,0.54461 0.04152,0.17857 0.06108,0.36239 0.07259,0.547 0.0069,0.1446 0.0065,0.28956 0.0067,0.43435 3.15e-4,0.14045 -0.0011,0.28088 -0.0015,0.42132 0.0021,0.20956 -0.08134,0.37799 -0.179199,0.54087 -0.09774,0.15105 -0.204313,0.29355 -0.322575,0.42073 -0.279634,0.30351 -0.580577,0.45306 -0.90207,0.6172 -0.09406,0.0661 -0.19235,0.11815 -0.29326,0.16592 -0.171374,0.0863 -0.33404,0.19562 -0.50455,0.28574 -0.199618,0.10042 -0.399826,0.19843 -0.602198,0.29019 -0.12705,0.0575 -0.261437,0.0795 -0.393619,0.11151 -0.125936,0.0239 -0.25226,0.0314 -0.377983,0.0573 -0.124437,0.0171 -0.246903,0.0448 -0.370649,0.0678 -0.133915,0.0234 -0.269451,0.0267 -0.404495,0.0289 -0.134048,0.002 -0.268114,0.002 -0.40217,0.002 -0.135798,-2.4e-4 -0.271594,-7.3e-4 -0.407393,-3.9e-4 -0.122869,-0.0106 -0.235176,-0.0404 -0.342273,-0.11533 -0.08935,-0.0756 -0.188631,-0.12053 -0.288051,-0.17019 -0.112043,-0.0394 -0.204296,-0.12527 -0.292643,-0.21485 -0.10063,-0.0887 -0.151637,-0.22097 -0.210085,-0.34918 -0.06385,-0.16139 -0.106485,-0.33315 -0.163443,-0.4984 -0.04645,-0.12786 -0.06828,-0.26385 -0.07911,-0.40224 0.0017,-0.12113 -0.03906,-0.23179 -0.06509,-0.34629 -0.02856,-0.18821 -0.0293,-0.3809 -0.03214,-0.57174 -0.0021,-0.17704 -0.0025,-0.35411 -0.0032,-0.53116 0.002,-0.19059 0.0023,-0.38119 0.0018,-0.57179 -0.0041,-0.17058 0.01782,-0.33962 0.03212,-0.50878 0.0046,-0.15817 0.03345,-0.30965 0.08404,-0.45463 0.160256,-0.37133 0.546218,-0.62384 0.854464,-0.70718 0,0 -0.562824,0.53373 -0.562824,0.53373 v 0 c -0.245796,0.12647 -0.04026,0.0235 0.519622,-0.38148 0.01514,-0.011 -0.03192,0.0184 -0.04663,0.0302 -0.05168,0.0414 -0.08935,0.0999 -0.119462,0.16511 -0.05706,0.13308 -0.09031,0.27589 -0.09418,0.427 -0.0116,0.16786 -0.04057,0.33417 -0.03757,0.50309 -5.79e-4,0.19005 -4.38e-4,0.38011 9.95e-4,0.57015 -0.0012,0.17733 -0.0025,0.35465 -0.0011,0.53198 0.0024,0.18338 0.0025,0.36836 0.02935,0.54937 0.02542,0.11975 0.07215,0.23444 0.07118,0.36022 0.0072,0.13037 0.0234,0.25915 0.06565,0.38033 0.05428,0.16269 0.09603,0.33167 0.16136,0.48806 0.05474,0.11877 0.09927,0.24186 0.195155,0.32158 0.08606,0.0828 0.176639,0.15299 0.282519,0.19171 0.102069,0.0484 0.197326,0.11 0.291428,0.1784 0.100983,0.0586 0.210095,0.078 0.321421,0.082 0.135803,5e-4 0.271607,2e-4 0.40741,4.3e-4 0.133529,-1.8e-4 0.267071,7.7e-4 0.400586,-0.002 0.133591,-0.005 0.267453,-0.0115 0.399467,-0.0391 0.123422,-0.0249 0.247024,-0.0468 0.370932,-0.0678 0.125452,-0.0222 0.252629,-0.0276 0.376783,-0.0607 0.128988,-0.0316 0.259503,-0.0567 0.382119,-0.11819 0.201083,-0.0925 0.40098,-0.18854 0.598272,-0.29263 0.171918,-0.094 0.336271,-0.20754 0.512423,-0.28957 0.100114,-0.0504 0.194456,-0.11502 0.294084,-0.16674 0.04895,-0.0228 0.09595,-0.0466 0.142142,-0.0771 0.01631,-0.0107 0.06443,-0.0448 0.04847,-0.0333 -0.59456,0.42783 -0.734342,0.54118 -0.504517,0.35726 0.121537,-0.1216 0.23187,-0.25706 0.33192,-0.40555 0.09492,-0.14474 0.190094,-0.29329 0.194713,-0.48721 -1.6e-5,-0.14016 -0.0011,-0.28034 4.6e-5,-0.42051 6.49e-4,-0.14338 0.0015,-0.28682 -0.0032,-0.43012 -0.0076,-0.18018 -0.02326,-0.35985 -0.06237,-0.53443 -0.04013,-0.18268 -0.07952,-0.3649 -0.109394,-0.55067 -0.01729,-0.13798 -0.02201,-0.2798 -0.05989,-0.41225 -0.05796,-0.15991 -0.146247,-0.29657 -0.228794,-0.43834 -0.07972,-0.12283 -0.16042,-0.24612 -0.251684,-0.35637 -0.09973,-0.11872 -0.20048,-0.23743 -0.315206,-0.3346 -0.120853,-0.0961 -0.248319,-0.1771 -0.392317,-0.20561 -0.141297,-0.0355 -0.278891,-0.0907 -0.422185,-0.11313 -0.109705,-0.017 -0.220124,-0.0142 -0.330278,-0.0251 -0.107031,-0.0119 -0.212522,-0.0373 -0.319748,-0.0455 -0.159096,-0.002 -0.318193,-0.007 -0.477073,-0.0176 -0.196301,-0.0162 -0.391218,-0.0451 -0.586025,-0.0786 -0.121371,-0.0135 -0.242484,-0.0283 -0.364531,-0.0183 0.666169,-0.62064 0.335763,-0.48133 0.778567,-0.53057 0.125063,-0.0227 0.24443,-0.0682 0.358401,-0.13605 0.111757,-0.0563 0.228119,-0.0951 0.345839,-0.12822 0.103412,-0.0271 0.207078,-0.0528 0.310095,-0.0821 0.09939,-0.0233 0.196325,-0.0533 0.283418,-0.11973 0.06817,-0.0438 0.02933,-0.0184 0.09588,-0.0628 0.01602,-0.0107 0.06384,-0.0432 0.04808,-0.032 -0.98861,0.70503 -0.684499,0.48739 -0.470716,0.33674 0.07782,-0.0887 0.144304,-0.1962 0.155225,-0.32964 6.32e-4,-0.15822 0.0018,-0.31644 0.0019,-0.47467 -6.63e-4,-0.14891 -7.29e-4,-0.29782 -0.0017,-0.44673 -0.0025,-0.11722 -0.0041,-0.23555 -0.02733,-0.35002 -0.02787,-0.1193 -0.06375,-0.23926 -0.127355,-0.33729 -0.0877,-0.12127 -0.186446,-0.22852 -0.298476,-0.31558 -0.113032,-0.0847 -0.230681,-0.16147 -0.351051,-0.2291 -0.112143,-0.0535 -0.222447,-0.12283 -0.345868,-0.11971 -0.158711,-8.1e-4 -0.31742,-0.002 -0.476135,-0.002 -0.186684,-1.1e-4 -0.37338,-6.9e-4 -0.560055,0.002 -0.130692,0.002 -0.261623,0.003 -0.391801,0.0193 -0.125091,0.0178 -0.249278,0.0461 -0.375302,0.0525 -0.150128,0.0154 -0.299251,0.0399 -0.446138,0.0818 -0.118628,0.0319 -0.234863,0.076 -0.349278,0.12584 -0.124476,0.0532 -0.244251,0.11897 -0.364081,0.18621 -0.108462,0.0595 -0.214961,0.12395 -0.323005,0.18453 -0.03233,0.0163 -0.0653,0.0306 -0.09755,0.0472 -0.01548,0.008 -0.06015,0.0363 -0.04572,0.0258 1.004194,-0.73097 0.658521,-0.49029 0.455389,-0.31613 -0.11938,0.12436 -0.247081,0.23439 -0.386859,0.32227 -0.144963,0.11111 -0.29238,0.21747 -0.427373,0.3468 0,0 -0.660713,0.32671 -0.660713,0.32671 z"
       inkscape:connector-curvature="0" />
  </g>
</svg>
