<?xml version="1.0" encoding="UTF-8" standalone="no"?>
<!-- Created with Inkscape (http://www.inkscape.org/) -->

<svg
   xmlns:dc="http://purl.org/dc/elements/1.1/"
   xmlns:cc="http://creativecommons.org/ns#"
   xmlns:rdf="http://www.w3.org/1999/02/22-rdf-syntax-ns#"
   xmlns:svg="http://www.w3.org/2000/svg"
   xmlns="http://www.w3.org/2000/svg"
   xmlns:sodipodi="http://sodipodi.sourceforge.net/DTD/sodipodi-0.dtd"
   xmlns:inkscape="http://www.inkscape.org/namespaces/inkscape"
   width="48"
   height="48"
   viewBox="0 0 48 48.000001"
   id="svg2"
   version="1.1"
   inkscape:version="0.91 r13725"
   sodipodi:docname="modelo-comparar-48.svg">
  <defs
     id="defs4" />
  <sodipodi:namedview
     id="base"
     pagecolor="#ffffff"
     bordercolor="#666666"
     borderopacity="1.0"
     inkscape:pageopacity="0.0"
     inkscape:pageshadow="2"
     inkscape:zoom="7.263766"
     inkscape:cx="22.877713"
     inkscape:cy="47.749641"
     inkscape:document-units="px"
     inkscape:current-layer="layer1"
     showgrid="false"
     units="px"
     inkscape:window-width="1375"
     inkscape:window-height="876"
     inkscape:window-x="65"
     inkscape:window-y="24"
     inkscape:window-maximized="1" />
  <metadata
     id="metadata7">
    <rdf:RDF>
      <cc:Work
         rdf:about="">
        <dc:format>image/svg+xml</dc:format>
        <dc:type
           rdf:resource="http://purl.org/dc/dcmitype/StillImage" />
        <dc:title />
      </cc:Work>
    </rdf:RDF>
  </metadata>
  <g
     inkscape:label="Camada 1"
     inkscape:groupmode="layer"
     id="layer1"
     transform="translate(0,-1004.3622)">
    <g
       id="g4142">
      <circle
         r="24.008055"
         cy="1028.354"
         cx="23.922005"
         id="path4138"
         style="fill:#000000;stroke:none;stroke-width:1;stroke-miterlimit:4;stroke-dasharray:none;stroke-opacity:1" />
      <circle
         style="fill:#ffffff;stroke:none;stroke-width:1;stroke-miterlimit:4;stroke-dasharray:none;stroke-opacity:1"
         id="circle4140"
         cx="23.922005"
         cy="1028.354"
         r="22.674274" />
    </g>
    <g
       id="g4179">
      <g
         transform="matrix(1.5742626,0,0,1.754274,-66.492954,-765.37829)"
         id="g4466">
        <path
           id="path4468"
           d="m 54.666016,1015.0165 c -0.0137,0 -0.02344,0.012 -0.02344,0.025 l 0,11.6523 c 0,0.014 0.0097,0.025 0.02344,0.025 l 10.535156,0 c 0.01369,0 0.02539,-0.012 0.02539,-0.025 l 0,-8.3281 c 0,0 -0.0039,0.01 -0.0078,0.01 l -3.341797,0 c -0.0039,0 -0.0059,0 -0.0059,-0.01 l 0,-3.3418 c 0,0 0.0019,-0.01 0.0059,-0.01 l -7.210937,0 z"
           style="fill:#ffffff;fill-opacity:1;stroke:#000000;stroke-width:0.40000001;stroke-miterlimit:4;stroke-dasharray:none;stroke-opacity:1"
           inkscape:connector-curvature="0" />
        <path
           inkscape:connector-curvature="0"
           id="path4470"
           d="m 61.887629,1015.0054 c -0.0039,0 -0.0078,0 -0.0078,0.01 l 0,3.3418 c 0,0 0.0039,0.01 0.0078,0.01 l 3.341797,0 c 0.0039,0 0.0078,0 0.0078,-0.01 l 0,-0.014 -3.333984,-3.334 -0.01563,0 z"
           style="fill:#ffffff;fill-opacity:1;stroke:#000000;stroke-width:0.40000001;stroke-miterlimit:4;stroke-dasharray:none;stroke-opacity:1" />
        <rect
           ry="0.010112973"
           y="1017.6093"
           x="56.113697"
           height="0.43806207"
           width="3.6991913"
           id="rect4472"
           style="fill:#000000;fill-opacity:1;stroke:none;stroke-width:0.40000001;stroke-miterlimit:4;stroke-dasharray:none;stroke-opacity:1" />
        <rect
           style="fill:#000000;fill-opacity:1;stroke:none;stroke-width:0.40000001;stroke-miterlimit:4;stroke-dasharray:none;stroke-opacity:1"
           id="rect4474"
           width="5.9868488"
           height="0.43806207"
           x="56.01635"
           y="1019.2236"
           ry="0.010112973" />
        <rect
           ry="0.010112973"
           y="1020.838"
           x="55.967674"
           height="0.43806207"
           width="5.9868488"
           id="rect4476"
           style="fill:#000000;fill-opacity:1;stroke:none;stroke-width:0.40000001;stroke-miterlimit:4;stroke-dasharray:none;stroke-opacity:1" />
        <rect
           style="fill:#000000;fill-opacity:1;stroke:none;stroke-width:0.40000001;stroke-miterlimit:4;stroke-dasharray:none;stroke-opacity:1"
           id="rect4478"
           width="5.9868488"
           height="0.43806207"
           x="56.01635"
           y="1022.4523"
           ry="0.010112973" />
      </g>
      <g
         transform="matrix(1.5742626,0,0,1.754274,-74.385326,-759.65738)"
         id="g4458">
        <path
           inkscape:connector-curvature="0"
           style="fill:#ffffff;fill-opacity:1;stroke:#000000;stroke-width:0.40000001;stroke-miterlimit:4;stroke-dasharray:none;stroke-opacity:1"
           d="m 54.666016,1015.0165 c -0.0137,0 -0.02344,0.012 -0.02344,0.025 l 0,11.6523 c 0,0.014 0.0097,0.025 0.02344,0.025 l 10.535156,0 c 0.01369,0 0.02539,-0.012 0.02539,-0.025 l 0,-8.3281 c 0,0 -0.0039,0.01 -0.0078,0.01 l -3.341797,0 c -0.0039,0 -0.0059,0 -0.0059,-0.01 l 0,-3.3418 c 0,0 0.0019,-0.01 0.0059,-0.01 l -7.210937,0 z"
           id="rect4368" />
        <path
           style="fill:#ffffff;fill-opacity:1;stroke:#000000;stroke-width:0.40000001;stroke-miterlimit:4;stroke-dasharray:none;stroke-opacity:1"
           d="m 61.887629,1015.0054 c -0.0039,0 -0.0078,0 -0.0078,0.01 l 0,3.3418 c 0,0 0.0039,0.01 0.0078,0.01 l 3.341797,0 c 0.0039,0 0.0078,0 0.0078,-0.01 l 0,-0.014 -3.333984,-3.334 -0.01563,0 z"
           id="rect4375"
           inkscape:connector-curvature="0" />
        <rect
           style="fill:#000000;fill-opacity:1;stroke:none;stroke-width:0.40000001;stroke-miterlimit:4;stroke-dasharray:none;stroke-opacity:1"
           id="rect4392"
           width="3.6991913"
           height="0.43806207"
           x="56.113697"
           y="1017.6093"
           ry="0.010112973" />
        <rect
           ry="0.010112973"
           y="1019.2236"
           x="56.01635"
           height="0.43806207"
           width="5.9868488"
           id="rect4394"
           style="fill:#000000;fill-opacity:1;stroke:none;stroke-width:0.40000001;stroke-miterlimit:4;stroke-dasharray:none;stroke-opacity:1" />
        <rect
           style="fill:#000000;fill-opacity:1;stroke:none;stroke-width:0.40000001;stroke-miterlimit:4;stroke-dasharray:none;stroke-opacity:1"
           id="rect4396"
           width="5.9868488"
           height="0.43806207"
           x="55.967674"
           y="1020.838"
           ry="0.010112973" />
        <rect
           ry="0.010112973"
           y="1022.4523"
           x="56.01635"
           height="0.43806207"
           width="5.9868488"
           id="rect4398"
           style="fill:#000000;fill-opacity:1;stroke:none;stroke-width:0.40000001;stroke-miterlimit:4;stroke-dasharray:none;stroke-opacity:1" />
      </g>
      <g
         transform="matrix(2.5351518,0,0,2.90281,-132.56099,-1890.1982)"
         id="g4443">
        <g
           id="g4433"
           transform="matrix(0.3313364,0,0,0.37621427,43.826285,629.61676)">
          <path
             transform="matrix(1.4579024,0,0,1,-28.193994,0)"
             inkscape:transform-center-y="-0.025381803"
             inkscape:transform-center-x="1.2486914"
             d="m 61.572059,1007.6312 -2.65742,-1.4835 -2.65742,-1.4835 2.613457,-1.5597 2.613458,-1.5596 0.04396,3.0431 z"
             inkscape:randomized="0"
             inkscape:rounded="0"
             inkscape:flatsided="false"
             sodipodi:arg2="2.0799497"
             sodipodi:arg1="1.0327521"
             sodipodi:r2="1.7571427"
             sodipodi:r1="3.5142853"
             sodipodi:cy="1004.6134"
             sodipodi:cx="59.771137"
             sodipodi:sides="3"
             id="path4427"
             style="fill:#000000;fill-opacity:1;stroke:none;stroke-width:0.40000001;stroke-miterlimit:4;stroke-dasharray:none;stroke-opacity:1"
             sodipodi:type="star" />
          <rect
             ry="0.015410285"
             y="1003.8834"
             x="60.98798"
             height="1.5575541"
             width="5.9381752"
             id="rect4429"
             style="fill:#000000;fill-opacity:1;stroke:none;stroke-width:0.40000001;stroke-miterlimit:4;stroke-dasharray:none;stroke-opacity:1" />
        </g>
        <g
           transform="matrix(-0.3313364,0,0,0.37621427,84.078422,632.00176)"
           id="g4437">
          <path
             sodipodi:type="star"
             style="fill:#000000;fill-opacity:1;stroke:none;stroke-width:0.40000001;stroke-miterlimit:4;stroke-dasharray:none;stroke-opacity:1"
             id="path4439"
             sodipodi:sides="3"
             sodipodi:cx="59.771137"
             sodipodi:cy="1004.6134"
             sodipodi:r1="3.5142853"
             sodipodi:r2="1.7571427"
             sodipodi:arg1="1.0327521"
             sodipodi:arg2="2.0799497"
             inkscape:flatsided="false"
             inkscape:rounded="0"
             inkscape:randomized="0"
             d="m 61.572059,1007.6312 -2.65742,-1.4835 -2.65742,-1.4835 2.613457,-1.5597 2.613458,-1.5596 0.04396,3.0431 z"
             inkscape:transform-center-x="1.2486914"
             inkscape:transform-center-y="-0.025381803"
             transform="matrix(1.4579024,0,0,1,-28.193994,0)" />
          <rect
             style="fill:#000000;fill-opacity:1;stroke:none;stroke-width:0.40000001;stroke-miterlimit:4;stroke-dasharray:none;stroke-opacity:1"
             id="rect4441"
             width="5.9381752"
             height="1.5575541"
             x="60.98798"
             y="1003.8834"
             ry="0.015410285" />
        </g>
      </g>
    </g>
  </g>
</svg>
