<?xml version="1.0" encoding="UTF-8" standalone="no"?>
<!-- Created with Inkscape (http://www.inkscape.org/) -->

<svg
   xmlns:dc="http://purl.org/dc/elements/1.1/"
   xmlns:cc="http://creativecommons.org/ns#"
   xmlns:rdf="http://www.w3.org/1999/02/22-rdf-syntax-ns#"
   xmlns:svg="http://www.w3.org/2000/svg"
   xmlns="http://www.w3.org/2000/svg"
   xmlns:sodipodi="http://sodipodi.sourceforge.net/DTD/sodipodi-0.dtd"
   xmlns:inkscape="http://www.inkscape.org/namespaces/inkscape"
   width="48"
   height="48"
   id="svg2"
   version="1.1"
   inkscape:version="0.48.4 r9939"
   sodipodi:docname="modelo-comentar.svg">
  <defs
     id="defs4" />
  <sodipodi:namedview
     id="base"
     pagecolor="#ffffff"
     bordercolor="#666666"
     borderopacity="1.0"
     inkscape:pageopacity="0.0"
     inkscape:pageshadow="2"
     inkscape:zoom="11.587234"
     inkscape:cx="4.9166678"
     inkscape:cy="16.453228"
     inkscape:document-units="px"
     inkscape:current-layer="layer1"
     showgrid="false"
     inkscape:window-width="1680"
     inkscape:window-height="993"
     inkscape:window-x="0"
     inkscape:window-y="0"
     inkscape:window-maximized="1" />
  <metadata
     id="metadata7">
    <rdf:RDF>
      <cc:Work
         rdf:about="">
        <dc:format>image/svg+xml</dc:format>
        <dc:type
           rdf:resource="http://purl.org/dc/dcmitype/StillImage" />
        <dc:title />
      </cc:Work>
    </rdf:RDF>
  </metadata>
  <g
     inkscape:label="Camada 1"
     inkscape:groupmode="layer"
     id="layer1"
     transform="translate(0,-1004.3622)">
    <g
       id="g3070"
       transform="matrix(1.0653846,0,0,1.0634615,-1.752592,-65.218807)">
      <path
         sodipodi:open="true"
         sodipodi:end="6.2682456"
         sodipodi:start="0"
         transform="matrix(1.3,0,0,1.3,-8.5956669,998.73041)"
         d="m 42.460522,22.799852 c 0,9.532642 -7.727733,17.260374 -17.260374,17.260374 -9.532642,0 -17.2603744,-7.727732 -17.2603744,-17.260374 0,-9.532641 7.7277324,-17.2603737 17.2603744,-17.2603737 9.432094,0 17.11754,7.5714777 17.258448,17.0025187"
         sodipodi:ry="17.260374"
         sodipodi:rx="17.260374"
         sodipodi:cy="22.799852"
         sodipodi:cx="25.200148"
         id="path2985"
         style="fill:#000000;fill-opacity:1;fill-rule:nonzero;stroke:none"
         sodipodi:type="arc" />
      <path
         sodipodi:type="arc"
         style="fill:#ffffff;fill-opacity:1;fill-rule:nonzero;stroke:none"
         id="path2987"
         sodipodi:cx="25.200148"
         sodipodi:cy="22.799852"
         sodipodi:rx="17.260374"
         sodipodi:ry="17.260374"
         d="m 42.460522,22.799852 c 0,9.532642 -7.727733,17.260374 -17.260374,17.260374 -9.532642,0 -17.2603744,-7.727732 -17.2603744,-17.260374 0,-9.532641 7.7277324,-17.2603737 17.2603744,-17.2603737 9.432094,0 17.11754,7.5714777 17.258448,17.0025187"
         transform="matrix(1.17,0,0,1.17,-5.1470439,1001.5218)"
         sodipodi:start="0"
         sodipodi:end="6.2682456"
         sodipodi:open="true" />
      <g
         transform="translate(2.3651118e-8,0.69043585)"
         id="g3209">
        <path
           style="fill:#000000;fill-opacity:1;fill-rule:nonzero;stroke:none"
           inkscape:transform-center-x="-0.085933509"
           inkscape:transform-center-y="0.93848951"
           d="m 18.770658,1036.2237 c -0.159638,-0.01 2.106349,-2.4332 2.031297,-2.5474 -0.07505,-0.1142 -3.948026,-3.1951 -3.86344,-3.3049 0.08459,-0.1097 4.174748,0.1286 4.334386,0.1332 0.159638,0.01 4.260358,-0.01 4.335409,0.109 0.07505,0.1142 -2.224909,2.8636 -2.309495,2.9733 -0.08459,0.1098 -4.368519,2.6412 -4.528157,2.6368 z"
           id="path3197"
           inkscape:connector-curvature="0"
           sodipodi:nodetypes="csscccc" />
        <path
           sodipodi:type="arc"
           style="fill:#000000;fill-opacity:1;fill-rule:nonzero;stroke:none"
           id="path3200"
           sodipodi:cx="25.84741"
           sodipodi:cy="21.850533"
           sodipodi:rx="11.780206"
           sodipodi:ry="7.1630554"
           d="m 37.627616,21.850533 c 0,3.956046 -5.274178,7.163055 -11.780206,7.163055 -6.506028,0 -11.780206,-3.207009 -11.780206,-7.163055 0,-3.956047 5.274178,-7.163056 11.780206,-7.163056 6.437405,0 11.682722,3.142163 11.778891,7.056046"
           transform="translate(-1.5102814,1004.1032)"
           sodipodi:start="0"
           sodipodi:end="6.2682456"
           sodipodi:open="true" />
      </g>
    </g>
  </g>
</svg>
