<?xml version="1.0" encoding="UTF-8" standalone="no"?>
<!-- Created with Inkscape (http://www.inkscape.org/) -->

<svg
   xmlns:dc="http://purl.org/dc/elements/1.1/"
   xmlns:cc="http://creativecommons.org/ns#"
   xmlns:rdf="http://www.w3.org/1999/02/22-rdf-syntax-ns#"
   xmlns:svg="http://www.w3.org/2000/svg"
   xmlns="http://www.w3.org/2000/svg"
   xmlns:sodipodi="http://sodipodi.sourceforge.net/DTD/sodipodi-0.dtd"
   xmlns:inkscape="http://www.inkscape.org/namespaces/inkscape"
   width="32"
   height="32"
   viewBox="0 0 32 32.000001"
   id="svg2"
   version="1.1"
   inkscape:version="0.48.4 r9939"
   sodipodi:docname="modelo-deselectcor-48.svg">
  <defs
     id="defs4" />
  <sodipodi:namedview
     id="base"
     pagecolor="#ffffff"
     bordercolor="#666666"
     borderopacity="1.0"
     inkscape:pageopacity="0.0"
     inkscape:pageshadow="2"
     inkscape:zoom="9.4662369"
     inkscape:cx="-4.9011688"
     inkscape:cy="17.630226"
     inkscape:document-units="px"
     inkscape:current-layer="layer1"
     showgrid="false"
     units="px"
     inkscape:window-width="1680"
     inkscape:window-height="993"
     inkscape:window-x="0"
     inkscape:window-y="0"
     inkscape:window-maximized="1" />
  <metadata
     id="metadata7">
    <rdf:RDF>
      <cc:Work
         rdf:about="">
        <dc:format>image/svg+xml</dc:format>
        <dc:type
           rdf:resource="http://purl.org/dc/dcmitype/StillImage" />
        <dc:title></dc:title>
      </cc:Work>
    </rdf:RDF>
  </metadata>
  <g
     inkscape:label="Camada 1"
     inkscape:groupmode="layer"
     id="layer1"
     transform="translate(0,-1020.3622)">
    <g
       id="g2989"
       transform="matrix(0.66065339,0,0,0.66938336,0.052142,348.03005)">
      <g
         transform="matrix(1,0,0,0.99367089,0,6.6624652)"
         id="g3359">
        <ellipse
           sodipodi:ry="24.277409"
           sodipodi:rx="23.9701"
           sodipodi:cy="1028.3921"
           sodipodi:cx="24.123755"
           d="m 48.093855,1028.3921 c 0,13.408 -10.73178,24.2774 -23.9701,24.2774 -13.238321,0 -23.9701009,-10.8694 -23.9701009,-24.2774 0,-13.4081 10.7317799,-24.2774 23.9701009,-24.2774 13.23832,0 23.9701,10.8693 23.9701,24.2774 z"
           style="fill:#000000"
           id="path3336"
           cx="24.123755"
           cy="1028.3921"
           rx="23.9701"
           ry="24.277409" />
        <ellipse
           sodipodi:ry="23.188038"
           sodipodi:rx="22.89452"
           sodipodi:cy="1028.4059"
           sodipodi:cx="24.123755"
           d="m 47.018274,1028.4059 c 0,12.8064 -10.250225,23.188 -22.894519,23.188 -12.644295,0 -22.8945203,-10.3816 -22.8945203,-23.188 0,-12.8064 10.2502253,-23.1881 22.8945203,-23.1881 12.644294,0 22.894519,10.3817 22.894519,23.1881 z"
           ry="23.188038"
           rx="22.89452"
           cy="1028.4059"
           cx="24.123755"
           id="ellipse3357"
           style="fill:#ffffff" />
      </g>
      <g
         transform="matrix(1.4864531,0,0,1.4417185,-15.850582,-454.32769)"
         id="g3013">
        <rect
           style="fill:#000000;stroke:none"
           id="rect4295"
           width="17.155714"
           height="17.219063"
           x="18.314573"
           y="1019.9362"
           ry="2.0071332" />
        <rect
           style="fill:#ffffff;stroke:none"
           id="rect4145"
           width="10.403179"
           height="1.383849"
           x="-736.8208"
           y="736.54028"
           ry="0.66890955"
           transform="matrix(0.69770824,-0.71638203,0.72915022,0.68435367,0,0)" />
        <rect
           transform="matrix(-0.69770824,-0.71638203,-0.72915022,0.68435367,0,0)"
           ry="0.66890955"
           y="697.71106"
           x="-773.914"
           height="1.383849"
           width="10.403179"
           id="rect4147"
           style="fill:#ffffff;stroke:none" />
      </g>
    </g>
  </g>
</svg>
